<?xml version="1.0" encoding="UTF-8"?>
<svg width="16px" height="17px" viewBox="0 0 16 17" version="1.1" xmlns="http://www.w3.org/2000/svg" xmlns:xlink="http://www.w3.org/1999/xlink">
    <!-- Generator: Sketch 43.1 (39012) - http://www.bohemiancoding.com/sketch -->
    <title>check</title>
    <desc>Created with Sketch.</desc>
    <defs></defs>
    <g id="Page-1" stroke="none" stroke-width="1" fill="none" fill-rule="evenodd">
        <g id="check" fill-rule="nonzero">
            <circle id="Oval-2" fill="#FFFFFF" cx="8" cy="8.04882812" r="8"></circle>
            <path d="M12.2660709,5.16284448 C11.924465,4.86027927 11.5535786,4.61627508 11.1631719,4.40155138 C10.9874889,4.3039497 10.7532448,4.37227088 10.6263627,4.55771407 L7.49334874,9.00835066 L5.65843716,6.43166632 C5.53155498,6.24622313 5.29731095,6.17790195 5.12162792,6.26574346 C4.72146104,6.49022732 4.35057466,6.74399169 4.00896878,7.03679673 C3.85280609,7.17343908 3.84304592,7.41744328 3.96992811,7.60288647 C3.96992811,7.60288647 6.39044976,11.0091851 6.6832548,11.4191121 C7.11270219,12.0047222 7.89351563,11.9754417 8.30344268,11.4191121 C8.60600789,10.9994249 12.3051115,5.71917406 12.3051115,5.71917406 C12.4319937,5.53373086 12.4222336,5.28972667 12.2660709,5.16284448 Z" id="Shape" fill="#E4554D"></path>
        </g>
    </g>
</svg>